<svg xmlns="http://www.w3.org/2000/svg" viewBox="0 0 63.8 35.2">
    <style>.color-svg-white{fill:#ffffff;}</style>
<g>
	<path class="color-svg-white" d="M40.5,35.2c-0.3,0-2.7-0.1-5-2.4c-1.5-1.5-3-1.7-3.5-1.8c-0.5,0.1-2.1,0.3-3.5,1.8c-2.4,2.4-5,2.4-5.1,2.4H10.2 C0.4,35.2,0,27.9,0,27.8l0-15c0-2,2.9-3.2,3.5-3.4l0.2-0.1l28.5-0.1l28.1,0.1l0.2,0.1c0.6,0.2,3.5,1.4,3.5,3.4v15 c0,0,0.1,2.5-1.8,4.6c-1.8,1.9-4.5,2.8-8.3,2.8H40.5C40.5,35.2,40.5,35.2,40.5,35.2z M31.9,29L31.9,29c0.9,0.1,2.9,0.4,4.9,2.4 c1.8,1.8,3.5,1.8,3.6,1.8h0h13.2c3.1,0,5.4-0.7,6.8-2.2c1.4-1.5,1.3-3.2,1.3-3.2l0-15c0-0.3-1-1.1-2-1.5l-28.1-0.1L4,11.3 c-1.1,0.4-2,1.2-2,1.5v15c0,0.2,0.3,5.4,8.1,5.4h13.2c0.1,0,1.8,0,3.6-1.8C29,29.4,31.1,29.1,31.9,29L31.9,29z M54,23.9 c-2.9,0-5.2-2.3-5.2-5.2c0-2.9,2.3-5.2,5.2-5.2s5.2,2.3,5.2,5.2C59.2,21.5,56.9,23.9,54,23.9z M54,15.4c-1.8,0-3.2,1.4-3.2,3.2 s1.4,3.2,3.2,3.2c1.8,0,3.2-1.4,3.2-3.2C57.2,16.9,55.8,15.4,54,15.4z"/>
	<path class="color-svg-white" d="M10.4,11L9,9.6C15.1,3.4,23.3,0,31.9,0c8.6,0,16.7,3.4,22.8,9.4l-1.4,1.4C47.6,5.2,40,2,31.9,2C23.8,2,16.2,5.2,10.4,11z"/>
</g>
</svg>
