<svg xmlns="http://www.w3.org/2000/svg" viewBox="0 0 88.54 48.874">
    <path fill="#fff" d="M8.722 26.167a3.942 3.942 0 1 0 3.938 3.937 3.945 3.945 0 0 0-3.938-3.937zm0 5.935a1.993 1.993 0 1 1 1.989-2 2 2 0 0 1-1.989 2z"/>
    <path fill="#fff" d="M84.398 0l-.809.35c-.76.332-14.043 6.072-24.54 10.994H0v37.53h61.505V25.637c10.077-6.37 25.524-17.159 26.314-17.7l.721-.511zM15.369 46.925H1.949V13.293h13.42zm44.187 0H17.318V13.293h37.648c-2.4 1.169-4.483 2.222-6.013 3.07a46.136 46.136 0 0 0-13.176 10.73l-.332.419v.01l-.068.077-8.771 9.356 12.689-2.339.078-.009h.019l.536-.059a46.083 46.083 0 0 0 16.061-5.574c1-.556 2.213-1.277 3.567-2.115zm1.949-23.6c-.672.429-1.325.838-1.949 1.228-1.754 1.1-3.3 2.037-4.522 2.719a46.356 46.356 0 0 1-14.677 5.253l-2.631-4.717a46.482 46.482 0 0 1 12.182-9.736c2.212-1.238 5.682-2.933 9.59-4.775.662-.312 1.325-.624 2.007-.936 8.859-4.113 19.131-8.6 22.055-9.872l2.427 4.346c-3.109 2.16-15.584 10.802-24.482 16.486z"/>
</svg>