<svg xmlns="http://www.w3.org/2000/svg" viewBox="0 0 75 52.002">
  <path fill="#fff" d="M67.656 14.79H62.1c-8.38 0-15.725.028-22.316.058A20.344 20.344 0 0 0 6.745 5.076a19.653 19.653 0 0 0-6.723 14 19.813 19.813 0 0 0-.003 1.826v.115c.012.176.027.349.041.518l.035.419c.038.363.088.717.151 1.169.057.371.132.731.212 1.1.02.088.051.172.072.259a19.521 19.521 0 0 0 8.2 11.843c.029.02.055.043.085.063.3.2.6.389.906.571a17.509 17.509 0 0 0 1.939 1.012l.016.007h.013c.461.216.933.412 1.411.59a10.9 10.9 0 0 1-4.626 2.333l-4.157.954 4.148.99a13.357 13.357 0 0 0 3.095.365 13.035 13.035 0 0 0 8.74-3.356 20.446 20.446 0 0 0 3.633-.353v1.463a7.32 7.32 0 0 0 7.344 7.214h4.795a7.836 7.836 0 0 0 9.655 3.258l2.295-.917-2.29-.927a5.7 5.7 0 0 1-2.051-1.414H67.66A7.32 7.32 0 0 0 75 40.961V22.01a7.308 7.308 0 0 0-7.344-7.22zM20.231 37.854c-.085 0-.168 0-.255-.006l-.484-.041-.344.331a10.927 10.927 0 0 1-6.015 2.953 12.855 12.855 0 0 0 2.2-1.825h.008l.422-.425.031-.03 1.241-1.21-1.708-.453a18.02 18.02 0 0 1-2.762-.977 15.2 15.2 0 0 1-1.726-.9 21.313 21.313 0 0 1-.822-.518A17.976 17.976 0 0 1 2.5 23.801c-.068-.318-.137-.638-.2-1.039-.047-.333-.094-.666-.126-.975l-.073-.94c-.01-.3-.019-.609-.019-.923 0-.256.011-.511.021-.764a17.7 17.7 0 0 1 6.05-12.612 18.165 18.165 0 0 1 12.065-4.547q.393 0 .788.016a18.036 18.036 0 0 1 16.967 14.157c.075.346.124.691.179 1.036.041.272.092.541.122.817.019.171.022.34.036.51.036.456.068.913.068 1.378v.04a17.915 17.915 0 0 1-9.416 15.676l-.206.109a18.383 18.383 0 0 1-3.671 1.441 18.246 18.246 0 0 1-4.854.673zm52.686 3.1a5.271 5.271 0 0 1-5.261 5.22h-27.5l.671 1.414a7.656 7.656 0 0 0 1.79 2.4 5.691 5.691 0 0 1-4.96-3.233l-.278-.585h-6.1a5.272 5.272 0 0 1-5.265-5.217v-1.935c.035-.01.068-.024.1-.035.275-.082.541-.183.812-.277.373-.128.747-.256 1.108-.4.123-.051.242-.109.363-.162a19.779 19.779 0 0 0 12.061-18.136v-.082c0-.068-.009-.133-.01-.2-.007-.5-.029-1-.075-1.511-.021-.251-.054-.5-.084-.746-.027-.208-.037-.413-.071-.621 6.475-.029 13.685-.056 21.875-.056h5.557a5.262 5.262 0 0 1 5.263 5.223z" data-name="Tracé 244"/>
</svg>
