<svg xmlns="http://www.w3.org/2000/svg" viewBox="0 0 89.281 52.301"><g transform="translate(-651.653 -286.565)"><path d="M721.384,324.665a18.55,18.55,0,1,0,0-37.1h-23.56v.038c-.253-.01-.5-.038-.757-.038a18.55,18.55,0,0,0,0,37.1c.256,0,.5-.028.757-.038v.038Z" fill="none" stroke="#fff" stroke-miterlimit="10" stroke-width="2"/><path d="M727.654,308.688a2.573,2.573,0,0,0,0-5.146h-3.268v.005c-.035,0-.07-.005-.1-.005a2.573,2.573,0,1,0,0,5.146c.035,0,.07,0,.1,0v0Z" fill="none" stroke="#fff" stroke-miterlimit="10" stroke-width="2"/><line x1="10.319" transform="translate(729.615 306.115)" fill="none" stroke="#fff" stroke-miterlimit="10" stroke-width="2"/><path d="M721.707,306.115h-5.427v-18.55" fill="none" stroke="#fff" stroke-miterlimit="10" stroke-width="2"/><line y1="18.55" transform="translate(716.281 306.115)" fill="none" stroke="#fff" stroke-miterlimit="10" stroke-width="2"/><path d="M678.517,306.115H669.38s-8.1-.429-8.1,7.235v15.812s.357,8.7-9.63,8.7" fill="none" stroke="#fff" stroke-miterlimit="10" stroke-width="2"/></g></svg>