<svg xmlns="http://www.w3.org/2000/svg" width="45" height="50" viewBox="0 0 45 50">
  <path id="Tracé_245" data-name="Tracé 245" d="M62.043,32.1a5.466,5.466,0,0,0-4.028,1.768l-8.048-4.148a5.309,5.309,0,0,0,.237-3.847l7.757-4.655a5.377,5.377,0,1,0-1.375-3.569,5.306,5.306,0,0,0,.372,1.943L49.3,24.19a5.462,5.462,0,0,0-3.339-2V13.2a5.458,5.458,0,1,0-1.925,0v8.987a5.462,5.462,0,0,0-3.339,2l-7.558-4.535a5.307,5.307,0,0,0,.376-1.956,5.446,5.446,0,1,0-1.384,3.579l7.664,4.6a5.295,5.295,0,0,0,.237,3.847l-8.049,4.149A5.376,5.376,0,1,0,33.414,37.5a5.307,5.307,0,0,0-.4-2.012L41.134,31.3a5.465,5.465,0,0,0,2.9,1.5v8.987a5.457,5.457,0,1,0,1.925,0V32.808a5.465,5.465,0,0,0,2.9-1.5l8.117,4.184a5.3,5.3,0,0,0-.4,2.013,5.457,5.457,0,1,0,5.457-5.4Zm0-17.944a3.493,3.493,0,1,1-3.531,3.493A3.516,3.516,0,0,1,62.043,14.16ZM28.06,21.191A3.493,3.493,0,1,1,31.592,17.7,3.516,3.516,0,0,1,28.06,21.191Zm-.1,19.8A3.492,3.492,0,1,1,31.488,37.5,3.515,3.515,0,0,1,27.957,40.993ZM41.469,7.9A3.532,3.532,0,1,1,45,11.39,3.515,3.515,0,0,1,41.469,7.9ZM48.532,47.1A3.532,3.532,0,1,1,45,43.61,3.516,3.516,0,0,1,48.532,47.1ZM45,30.992A3.492,3.492,0,1,1,48.532,27.5,3.515,3.515,0,0,1,45,30.992Zm17.043,10A3.492,3.492,0,1,1,65.574,37.5,3.515,3.515,0,0,1,62.043,40.993Z" transform="translate(-22.5 -2.5)" fill="#fff"/>
</svg>
